<svg viewBox="0 0 72 72" xmlns="http://www.w3.org/2000/svg"><path d="m44.33 44.71-11.81 11.81c-4.53 4.54-11.85 4.7-16.58.4901 8.96.08 8.4.65 24.87-15.82z" fill="#d22f27"/><path d="m40.81 41.19c-16.47 16.47-15.91 15.9-24.87 15.82-.18-.16-.35-.32-.52-.4901-2.35-2.35-3.53-5.45-3.53-8.55s1.18-6.2 3.53-8.55l11.81-11.81z" fill="#ea5a47"/><path d="m56.85 15.1c-2.47-2.47-5.75-3.83-9.2599-3.83-3.51 0-6.8 1.36-9.26 3.83l-12.5201 12.51 18.52 18.52 12.51-12.52c2.47-2.46 3.83-5.75 3.83-9.26 0-3.5-1.36-6.79-3.82-9.25zm-.71 17.8-11.81 11.81-3.52-3.52c.42-.42.86-.86 1.31-1.31 15.72-15.72 8.77-25.05 6.21-27.59 2.85.18 5.65 1.35 7.81 3.51 2.35 2.35 3.53 5.45 3.53 8.55s-1.18 6.2-3.53 8.55z" fill="#92d3f5"/><path d="m57.55 14.39c-2.65-2.66-6.19-4.1201-9.96-4.1201-3.78 0-7.32 1.46-9.97 4.1201l-13.22 13.22 1.41 1.42 17.1 17.1 1.42 1.41 13.22-13.22c2.66-2.66 4.12-6.2 4.12-9.97s-1.46-7.31-4.12-9.96zm-13.22 30.32-3.52-3.52-13.58-13.58 11.81-11.81c2.35-2.35 5.45-3.53 8.55-3.53.25 0 .49.01.74.02 2.85.18 5.65 1.35 7.81 3.51 2.35 2.35 3.53 5.45 3.53 8.55s-1.18 6.2-3.53 8.55z" fill="#92d3f5"/><path d="m59.67 24.35c0 3.1-1.18 6.2-3.53 8.55l-11.81 11.81-3.52-3.52c.42-.42.86-.86 1.31-1.31 15.72-15.72 8.77-25.05 6.21-27.59 2.85.18 5.65 1.35 7.81 3.51 2.35 2.35 3.53 5.45 3.53 8.55z" fill="#61b2e4"/><path d="m27.2279 27.6135-.57-.58" fill="none"/><path d="m40.8452 39.0132h5.8082v6.5641h-5.8082z" fill="#61b2e4" transform="matrix(.7071 .7071 -.7071 .7071 42.7211 -18.5474)"/><path d="m47.5877 12.2742c3.1001 0 6.2001 1.1759 8.5519 3.5276 4.7035 4.7035 4.7035 12.4002 0 17.1038l-23.6196 23.6195c-2.3518 2.3518-5.4518 3.5277-8.5519 3.5277s-6.2001-1.1759-8.5519-3.5277c-4.7035-4.7035-4.7035-12.4002 0-17.1038l23.6195-23.6195c2.3518-2.3518 5.4519-3.5276 8.552-3.5276m0-2c-3.7741 0-7.3135 1.4608-9.9661 4.1134l-23.6196 23.6195c-5.4953 5.4953-5.4953 14.4369 0 19.9322 2.6526 2.6526 6.192 4.1135 9.9661 4.1135s7.3135-1.4608 9.9661-4.1134l23.6196-23.6195c5.4953-5.4953 5.4953-14.4369 0-19.9322-2.6526-2.6527-6.192-4.1135-9.9661-4.1135z"/><path d="m28.5625 30.4062 12.8594 12.8594" fill="none" stroke="#000" stroke-linecap="round" stroke-miterlimit="10" stroke-width="2"/></svg>